<?xml version="1.0" encoding="UTF-8" standalone="no"?>
<svg width="49px" height="49px" viewBox="0 0 49 49" version="1.1" xmlns="http://www.w3.org/2000/svg" xmlns:xlink="http://www.w3.org/1999/xlink">
    <!-- Generator: Sketch 46.2 (44496) - http://www.bohemiancoding.com/sketch -->
    <title>Wpp/BVB</title>
    <desc>Created with Sketch.</desc>
    <defs></defs>
    <g id="SYMBOLS" stroke="none" stroke-width="1" fill="none" fill-rule="evenodd">
        <g id="Wpp/BVB">
            <g id="BVB_Standard_Logo" transform="translate(6.000000, 6.000000)">
                <path d="M0.0452077465,18.4877965 C0.0452077465,8.3255193 8.31210211,0.0873719298 18.510162,0.0873719298 C28.7083521,0.0873719298 36.975507,8.3255193 36.975507,18.4877965 C36.975507,28.6503333 28.7083521,36.8884807 18.510162,36.8884807 C8.31210211,36.8884807 0.0452077465,28.6503333 0.0452077465,18.4877965" id="Fill-1" fill="#FFE511"></path>
                <path d="M0.932556338,18.4877965 C0.932556338,8.8139193 8.80235211,0.971736842 18.510162,0.971736842 C28.2182324,0.971736842 36.0880282,8.8139193 36.0880282,18.4877965 C36.0880282,28.1619333 28.2182324,36.003986 18.510162,36.003986 C8.80235211,36.003986 0.932556338,28.1619333 0.932556338,18.4877965" id="Fill-2" fill="#1A1919"></path>
                <path d="M1.90862676,18.4877965 C1.90862676,9.35100351 9.34132746,1.94438246 18.510162,1.94438246 C27.679257,1.94438246 35.1119577,9.35100351 35.1119577,18.4877965 C35.1119577,27.6247193 27.679257,35.0313404 18.510162,35.0313404 C9.34132746,35.0313404 1.90862676,27.6247193 1.90862676,18.4877965" id="Fill-3" fill="#FFE511"></path>
                <path d="M21.2267958,32.5838877 C20.0008451,32.5838877 19.1084155,31.6592772 19.1084155,30.6032842 C19.1084155,30.4491825 19.0972113,30.3807649 19.1046373,30.2700246 L20.2611479,30.2700246 C20.5959718,30.2700246 20.5422958,30.7222035 20.5422958,30.7222035 C20.5422958,31.070393 20.9201127,31.2281298 21.2047782,31.2357895 C21.5509366,31.2453965 21.8331268,30.9277158 21.8331268,30.5795263 L21.8280458,29.9048281 C21.6069577,30.0243965 21.168169,30.0220596 21.168169,30.0220596 C20.1203134,29.9934982 19.0969507,29.0927754 19.0969507,27.9788807 L19.0969507,27.4826912 C19.0969507,26.3687965 20.0502218,25.4919614 21.168169,25.4919614 L21.2140282,25.4919614 C22.3318451,25.4919614 23.1997817,26.3943719 23.1997817,27.5083965 L23.1997817,30.5510947 C23.1997817,31.697186 22.3852606,32.5720737 21.2267958,32.5838877" id="Fill-4" fill="#1A1919"></path>
                <path d="M21.1809366,26.9310667 L21.2006092,26.9310667 C21.5498944,26.9310667 21.8331268,27.2133053 21.8331268,27.5613649 L21.8331268,27.9609649 C21.8331268,28.3090246 21.5498944,28.5910035 21.2006092,28.5910035 L21.1809366,28.5910035 C20.8315211,28.5910035 20.548419,28.3090246 20.548419,27.9609649 L20.548419,27.5613649 C20.548419,27.2133053 20.8315211,26.9310667 21.1809366,26.9310667" id="Fill-5" fill="#FFE511"></path>
                <path d="M8.55963732,22.792 L8.55963732,19.5648211 L10.4472887,19.5648211 C12.0093662,19.5648211 12.5671021,22.3917509 10.536662,22.792 L8.55963732,22.792 Z M8.55963732,17.1072421 L8.55963732,14.0271544 L10.6927394,14.0271544 C12.0762007,14.0271544 12.3602148,16.6838842 10.7758592,17.1072421 L8.55963732,17.1072421 Z M6.01562676,11.4716877 L6.01562676,25.2077754 L10.3581761,25.2123193 C13.8614507,25.2123193 15.6403169,20.9762737 13.2043099,18.3652421 C13.2043099,18.3652421 13.1968838,18.3575825 13.1968838,18.3448596 C13.1968838,18.332007 13.2143415,18.3185053 13.2143415,18.3185053 C15.2386585,16.0399544 14.3907852,12.037593 10.6259049,11.4716877 L6.01562676,11.4716877 L6.01562676,11.4716877 Z" id="Fill-6" fill="#1A1919"></path>
                <path d="M26.497993,22.792 L26.497993,19.5648211 L28.3728768,19.5648211 C29.9346937,19.5648211 30.4926901,22.3917509 28.4621197,22.792 L26.497993,22.792 Z M26.497993,17.1072421 L26.497993,14.0271544 L28.6183275,14.0271544 C30.0016585,14.0271544 30.2856725,16.6838842 28.7014472,17.1072421 L26.497993,17.1072421 Z M23.9410845,11.4716877 L23.9410845,25.2077754 L28.2836338,25.2123193 C31.7869085,25.2123193 33.5659049,20.9762737 31.1296373,18.3652421 C31.1296373,18.3652421 31.1223415,18.3575825 31.1223415,18.3448596 C31.1223415,18.332007 31.1397993,18.3185053 31.1397993,18.3185053 C33.1641162,16.0399544 32.316243,12.037593 28.5512324,11.4716877 L23.9410845,11.4716877 L23.9410845,11.4716877 Z" id="Fill-7" fill="#1A1919"></path>
                <path d="M15.7894894,25.5014386 L15.8353486,25.5014386 C16.9531655,25.5014386 17.8592746,26.4044982 17.8592746,27.5185228 L17.8592746,30.5643368 C17.8592746,31.6783614 16.9531655,32.5814211 15.8353486,32.5814211 L15.7894894,32.5814211 C14.6715423,32.5814211 13.7653028,31.6783614 13.7653028,30.5643368 L13.7653028,27.5185228 C13.7653028,26.4044982 14.6715423,25.5014386 15.7894894,25.5014386" id="Fill-8" fill="#1A1919"></path>
                <path d="M15.802257,26.9482035 L15.822581,26.9482035 C16.1719965,26.9482035 16.4550986,27.2304421 16.4550986,27.5786316 L16.4550986,30.6023754 C16.4550986,30.9504351 16.1719965,31.2326737 15.822581,31.2326737 L15.802257,31.2326737 C15.4528415,31.2326737 15.1696092,30.9504351 15.1696092,30.6023754 L15.1696092,27.5786316 C15.1696092,27.2304421 15.4528415,26.9482035 15.802257,26.9482035" id="Fill-9" fill="#FFE511"></path>
                <polyline id="Fill-10" fill="#1A1919" points="13.0073239 4.61084912 17.5241901 18.5362211 19.4782852 18.5362211 23.9410845 4.61084912 21.2076444 4.61084912 18.4964824 13.9052491 15.8034296 4.61084912 13.0073239 4.61084912"></polyline>
            </g>
        </g>
    </g>
</svg>