<?xml version="1.0" encoding="UTF-8" standalone="no"?>
<svg width="49px" height="49px" viewBox="0 0 49 49" version="1.1" xmlns="http://www.w3.org/2000/svg" xmlns:xlink="http://www.w3.org/1999/xlink">
    <!-- Generator: Sketch 46.2 (44496) - http://www.bohemiancoding.com/sketch -->
    <title>Wpp/FRA</title>
    <desc>Created with Sketch.</desc>
    <defs></defs>
    <g id="SYMBOLS" stroke="none" stroke-width="1" fill="none" fill-rule="evenodd">
        <g id="Wpp/FRA">
            <g id="SGE---Eintracht-Frankfurt" transform="translate(6.000000, 6.000000)">
                <path d="M18.5252847,0.387699317 C8.51252847,0.387699317 0.387699317,8.50410023 0.387699317,18.5252847 C0.387699317,28.538041 8.50410023,36.6628702 18.5252847,36.6628702 C28.5464692,36.6628702 36.6628702,28.5464692 36.6628702,18.5252847 C36.6544419,8.50410023 28.538041,0.387699317 18.5252847,0.387699317 L18.5252847,0.387699317 Z" id="Shape" fill="#FFFFFF" fill-rule="nonzero"></path>
                <path d="M18.5252847,0.0840422551 C28.7057036,0.0840422551 36.957958,8.33629659 36.9665272,18.5252847 C36.9665272,28.7141744 28.7141744,36.9665272 18.5252847,36.9665272 C8.33928364,36.9665272 0.0840422551,28.7086357 0.0840422551,18.5252847 C0.0840422551,8.33928364 8.34193379,0.0840422551 18.5252847,0.0840422551 Z M18.5252847,0.691356378 C8.67730049,0.691356378 0.691356378,8.67473761 0.691356378,18.5252847 C0.691356378,28.373269 8.67473761,36.3592131 18.5252847,36.3592131 C28.3787641,36.3592131 36.3592131,28.3787641 36.3592132,18.5255401 C36.3509259,8.67190387 28.3703784,0.691356378 18.5252847,0.691356378 Z" id="Shape" fill="#E30613" fill-rule="nonzero"></path>
                <path d="M32.6756482,18.5252847 C32.6756482,10.7035314 26.3393854,4.36726861 18.5252847,4.3749213 C10.7117256,4.3749213 4.3749213,10.7117256 4.3749213,18.5252847 C4.3749213,26.3388439 10.7117256,32.6756482 18.5252847,32.6756482 C26.3388439,32.6756482 32.6756482,26.3388439 32.6756482,18.5252847 Z M35.5425751,18.5252847 C35.5425751,27.9222039 27.9222039,35.5425751 18.5252847,35.5425751 C9.12836556,35.5425751 1.50799442,27.9222039 1.50799442,18.5252847 C1.50799442,9.12836556 9.12836556,1.50799442 18.5238808,1.50799511 C27.9216625,1.49879062 35.5425751,9.1197032 35.5425751,18.5252847 Z" id="Shape" fill="#E30613" fill-rule="nonzero"></path>
                <path d="M25.5207289,19.2753986 C26.1191344,19.5029613 27.5940774,20.2025057 30.046697,20.2952164 C31.6986333,20.3542141 32.3476082,19.3259681 31.8082005,19.1489749 C31.5890661,19.081549 26.8776765,17.7414579 26.8776765,17.7414579 C26.8776765,17.7414579 26.2961276,17.5138952 26.7343964,17.4633257 C27.1726651,17.4211845 29.1364465,17.438041 29.9708428,17.0924829 C30.9906606,16.6710706 31.176082,15.7523918 30.9316629,15.76082 C28.8835991,15.8703872 26.9535308,15.828246 26.8355353,15.8198178 C26.8271071,15.8198178 26.8102506,15.8198178 26.8018223,15.8113895 C26.8018223,15.8113895 26.5742597,15.7355353 26.7765376,15.5585421 C27.0041002,15.3646925 28.4790433,14.1257403 28.7908884,13.8138952 C29.6084282,12.9963554 29.052164,11.7995444 28.9173121,11.9259681 C27.5603645,13.223918 25.798861,14.218451 25.6977221,14.2437358 C25.5965831,14.2605923 25.6218679,14.0161731 25.7061503,13.83918 C25.7904328,13.6621868 26.2539863,13.1312073 26.4056948,12.5665148 C26.8018223,11.0831435 26.7006834,10.1476082 25.866287,9.78519362 C25.7145786,9.71776765 25.6555809,9.80205011 25.4617312,10.2656036 C25.2678815,10.7291572 25.1920273,11.5298405 24.4419134,11.8416856 C24.0626424,12.0018223 23.3462415,12.6592255 23.3378132,12.9205011 C23.329385,13.1817768 23.4810934,13.5947608 23.2788155,13.7296128 C23.1186788,13.83918 22.8489749,13.6453303 22.6045558,13.8476082 C22.3685649,14.0414579 21.6774487,14.7494305 21.4330296,14.9264237 C21.1886105,15.1034169 20.7082005,15.3984055 20.4132118,15.2298405 C19.7558087,14.5808656 20.076082,12.6676538 20.076082,12.6676538 C20.076082,12.6676538 20.3036446,12.7182232 20.5480638,12.676082 C21.2138952,12.5749431 21.2560364,11.7826879 21.1633257,11.681549 C21.0874715,11.7658314 20.9526196,11.8922551 20.6070615,11.9259681 C20.3373576,11.9512528 20.2699317,11.8416856 20.2109339,11.6056948 C20.1519362,11.3781321 20.1182232,11.2348519 20.2277904,10.8387244 C20.3457859,10.4425968 20.7503417,10.2403189 20.9779043,10.0548975 C21.205467,9.86947608 21.0874715,9.16993166 21.0874715,9.16993166 C21.0874715,9.16993166 20.9947608,9.37220957 20.8346241,9.53234624 C20.6154897,9.74305239 20.3120729,9.68405467 19.6630979,9.64191344 C19.014123,9.59977221 18.7444191,9.35535308 18.6432802,9.22892938 C18.5421412,9.10250569 17.6908884,9.1952164 17.4464692,9.20364465 C17.2020501,9.21207289 16.1653759,9.4143508 15.7776765,9.55763098 C15.3899772,9.70091116 14.8589977,9.9284738 14.7157175,10.0464692 C14.5724374,10.1644647 14.6230068,10.2740319 14.6230068,10.2740319 L14.7494305,10.6280182 C14.7494305,10.6280182 15.2298405,10.2908884 15.7018223,10.1644647 C16.1738041,10.038041 16.2328018,10.2571754 16.2917995,10.4594533 C16.3592255,10.6870159 16.376082,10.7460137 16.4013667,10.9061503 C16.2243736,10.9820046 15.5248292,11.0410023 14.8927107,11.0072893 C14.1594533,10.9651481 14.1173121,10.6448747 14.1257403,10.4594533 C14.1257403,10.3920273 13.9150342,10.4594533 13.8307517,10.6448747 C13.6874715,10.9735763 13.6369021,11.5298405 15.1455581,11.5045558 C15.7439636,11.4961276 16.3002278,11.2769932 16.477221,11.2095672 C16.5952164,11.6056948 16.4603645,11.6731207 16.2917995,11.6984055 C15.5669704,11.8248292 15.1961276,11.6309795 15.1961276,11.6309795 C15.1961276,11.6309795 15.0949886,11.9596811 15.1708428,12.0102506 C15.6091116,12.3389522 16.4856492,12.3389522 16.6457859,12.3305239 C16.8059226,12.3136674 16.923918,12.2125285 17.0166287,12.2883827 C17.1009112,12.3642369 17.2104784,12.7350797 17.2273349,12.8530752 C17.2441913,12.9794989 17.2020501,13.0637813 16.8396355,13.0553531 C16.477221,13.0469248 16.3339408,13.0553531 16.3507973,13.1312073 C16.3676538,13.1986333 16.7553531,13.5104784 16.822779,13.5779043 C16.890205,13.6453303 17.2694761,13.257631 17.2694761,13.257631 C17.2694761,13.257631 17.2526196,13.3082005 17.2779043,13.4683371 C17.3116173,13.6284738 17.4127563,14.867426 16.6373576,15.2298405 C16.3339408,15.3984055 15.8535308,15.1034169 15.6175399,14.9264237 C15.3731207,14.7494305 14.6820046,14.0498861 14.4460137,13.8476082 C14.2100228,13.6537585 13.9318907,13.8476082 13.771754,13.7296128 C13.5694761,13.5947608 13.7296128,13.1817768 13.7127563,12.9205011 C13.704328,12.6592255 12.9963554,12.0018223 12.608656,11.8416856 C11.8585421,11.5298405 11.7826879,10.7207289 11.5888383,10.2656036 C11.3949886,9.80205011 11.3359909,9.71776765 11.1842825,9.78519362 C10.3498861,10.13918 10.2487472,11.0747153 10.6448747,12.5665148 C10.7965831,13.1312073 11.2601367,13.6621868 11.3444191,13.83918 C11.4287016,14.0161731 11.4539863,14.2605923 11.3528474,14.2437358 C11.2517084,14.2268793 9.49020501,13.223918 8.1332574,11.9259681 C7.99840547,11.7995444 7.44214123,12.9963554 8.25968109,13.8138952 C8.5715262,14.1257403 10.0464692,15.3646925 10.2740319,15.5585421 C10.4763098,15.7355353 10.2487472,15.8113895 10.2487472,15.8113895 C10.2403189,15.8113895 10.2234624,15.8113895 10.2150342,15.8198178 C10.0886105,15.8366743 8.16697039,15.8703872 6.11890661,15.76082 C5.88291572,15.7523918 6.05990888,16.6710706 7.07972665,17.0924829 C7.91412301,17.438041 9.87790433,17.4127563 10.3161731,17.4633257 C10.7544419,17.505467 10.1728929,17.7414579 10.1728929,17.7414579 C10.1728929,17.7414579 5.46150342,19.0731207 5.24236902,19.1489749 C4.69453303,19.3259681 5.35193622,20.3542141 7.00387244,20.2952164 C9.45649203,20.2109339 10.9314351,19.5113895 11.5298405,19.2753986 C12.128246,19.047836 11.7742597,19.4692483 11.647836,19.5535308 C10.7628702,20.177221 8.1501139,21.9471526 6.91958998,22.7394077 C6.74259681,22.8489749 6.71731207,22.9753986 6.91958998,23.194533 C7.88883827,24.222779 9.71776765,23.0428246 10.4425968,22.646697 C11.2854214,22.1747153 13.2997722,20.657631 13.4514806,20.8261959 C13.5104784,20.8936219 13.3924829,21.4583144 12.1535308,22.781549 C12.3305239,22.9585421 12.5665148,23.1355353 12.5665148,23.1355353 C12.5665148,23.1355353 11.9765376,23.8519362 11.5635535,24.2986333 C11.4034169,24.4756264 11.0157175,24.8548975 10.9145786,24.838041 C10.8134396,24.8211845 10.2740319,24.2396355 10.0970387,24.2312073 C9.97904328,24.222779 9.73462415,24.3997722 9.54920273,24.2986333 C9.43963554,24.2396355 9.09407745,24.2733485 8.81594533,24.3997722 C8.53781321,24.5346241 8.58838269,25.1920273 8.6642369,24.8970387 C8.74009112,24.6020501 9.3047836,24.6104784 9.58291572,24.93918 C9.67562642,25.0403189 9.9453303,25.2425968 10.1138952,25.284738 C10.2908884,25.3268793 10.3751708,25.3774487 10.2993166,25.4280182 C10.2318907,25.4701595 9.76833713,25.5881549 9.38063781,25.866287 C9.29635535,26.001139 9.33849658,26.0601367 9.31321185,26.1275626 C8.8833713,26.2792711 8.78223235,26.414123 8.91708428,26.8439636 C8.93394077,26.8861048 8.92551253,26.894533 9.05193622,27.1642369 C9.11936219,27.0462415 9.0856492,26.6669704 9.49020501,26.5826879 C9.53234624,26.5742597 9.59977221,26.6332574 9.67562642,26.6332574 C9.84419134,26.6332574 10.4510251,26.2792711 10.5605923,26.1444191 C10.6701595,26.0095672 10.6448747,26.2202733 10.5690205,26.3551253 C10.2318907,26.9788155 10.3583144,27.3665148 10.3835991,27.3749431 C10.4594533,27.4002278 10.5015945,27.3496583 10.552164,27.4676538 C10.7628702,28.0829157 11.3781321,28.4537585 11.2769932,28.3441913 C11.1758542,28.2346241 11.0241458,27.4255125 11.0915718,27.3917995 C11.1589977,27.3580866 11.201139,27.4002278 11.2769932,27.3580866 C11.3528474,27.3159453 11.4455581,26.961959 11.4371298,26.8523918 C11.4287016,26.5911162 11.2854214,26.5068337 11.2854214,26.3551253 C11.2854214,26.1949886 11.3949886,26.0264237 11.3949886,26.0264237 C11.3949886,26.0264237 11.58041,26.38041 11.7321185,26.5405467 C12.0439636,26.8692483 11.9933941,26.9451025 12.3220957,26.8186788 C12.3895216,26.7933941 12.8277904,27.509795 12.8277904,27.509795 C12.8277904,27.509795 12.9879271,27.1220957 12.9120729,26.8523918 C12.8783599,26.7259681 12.7603645,26.6753986 12.676082,26.5658314 C12.5917995,26.4562642 12.8277904,26.3214123 12.709795,26.1528474 C12.0776765,25.5460137 12.0186788,25.7567198 11.8501139,25.3605923 C11.7405467,25.0908884 11.9512528,24.9138952 12.1788155,24.6441913 C12.7350797,23.9699317 12.7519362,23.9783599 13.0806378,23.5906606 C13.2154897,23.6833713 13.291344,23.7676538 13.4851936,23.9109339 C14.1088838,23.0006834 14.6314351,22.1831435 15.2129841,21.9640091 C15.794533,21.753303 16.0558087,22.0904328 16.0389522,22.4444191 C16.0136674,23.0681093 14.766287,24.3997722 14.766287,24.3997722 C14.2015945,25.0318907 13.7886105,25.3605923 13.5526196,25.7735763 L13.5526196,25.7735763 L13.5526196,25.7735763 C13.4514806,25.9421412 13.3840547,26.1275626 13.3503417,26.346697 C13.3166287,26.5742597 13.3587699,26.9113895 13.4009112,27.1810934 L13.4009112,27.1810934 L13.4009112,27.1810934 C13.4514806,27.442369 13.5020501,27.6446469 13.5020501,27.6446469 C13.5020501,27.6446469 13.6874715,26.9788155 13.7296128,26.894533 C13.8476082,26.6669704 13.8728929,26.894533 14.0498861,27.3412301 C14.2268793,27.7879271 14.5977221,28.3526196 14.5977221,28.3526196 L14.5892938,27.2063781 C14.6061503,26.9113895 14.6314351,26.515262 14.7578588,26.8102506 C14.8927107,27.1052392 15.3225513,27.7457859 15.3225513,27.7457859 C15.3225513,27.7457859 15.3309795,27.509795 15.347836,27.2316629 L15.347836,27.2316629 L15.347836,27.2316629 C15.3646925,26.9703872 15.5669704,26.0264237 15.6681093,25.832574 L15.6596811,25.832574 L15.6681093,25.832574 C15.76082,25.6640091 16.1653759,24.9644647 16.6542141,24.8886105 C17.1430524,24.8127563 17.1851936,25.6892938 17.1514806,25.8747153 L17.1514806,25.8747153 C17.0840547,26.2287016 16.957631,26.6501139 16.8817768,26.7933941 C16.8396355,26.8861048 16.4519362,27.6109339 16.4013667,27.7457859 C15.8788155,29.2038724 16.9660592,30.0888383 16.9744875,30.0214123 C16.9744875,29.9539863 17.1009112,28.9425968 17.2694761,28.7066059 C17.370615,28.5633257 17.505467,28.470615 17.6066059,28.6138952 C17.7498861,28.8161731 18.0617312,29.4904328 18.5,29.9624146 L18.5,29.9624146 C18.5,29.9624146 18.5,29.9624146 18.5,29.9624146 C18.5,29.9624146 18.5,29.9624146 18.5,29.9624146 L18.5,29.9624146 C18.9382688,29.498861 19.2501139,28.8161731 19.3933941,28.6138952 C19.494533,28.470615 19.629385,28.5633257 19.7305239,28.7066059 C19.8990888,28.9510251 20.0255125,29.9539863 20.0255125,30.0214123 C20.0255125,30.0888383 21.1211845,29.2038724 20.5986333,27.7457859 C20.5480638,27.6109339 20.1603645,26.8861048 20.1182232,26.7933941 C20.042369,26.6501139 19.9159453,26.2287016 19.8485194,25.8747153 L19.8485194,25.8747153 C19.8148064,25.6892938 19.8569476,24.8127563 20.3457859,24.8886105 C20.8346241,24.9644647 21.23918,25.6640091 21.3318907,25.832574 L21.3403189,25.832574 L21.3318907,25.832574 C21.4414579,26.0264237 21.6437358,26.9703872 21.652164,27.2316629 L21.652164,27.2316629 L21.652164,27.2316629 C21.6690205,27.509795 21.6774487,27.7457859 21.6774487,27.7457859 C21.6774487,27.7457859 22.1072893,27.1052392 22.2421412,26.8102506 C22.3769932,26.515262 22.3938497,26.9113895 22.4107062,27.2063781 L22.4022779,28.3526196 C22.4022779,28.3526196 22.7731207,27.7879271 22.9501139,27.3412301 C23.1271071,26.894533 23.1523918,26.6669704 23.2703872,26.894533 C23.3125285,26.9788155 23.4979499,27.6446469 23.4979499,27.6446469 C23.4979499,27.6446469 23.5569476,27.442369 23.5990888,27.1810934 L23.5990888,27.1810934 L23.5990888,27.1810934 C23.6496583,26.9113895 23.6917995,26.5826879 23.6496583,26.346697 C23.6159453,26.1275626 23.5485194,25.9421412 23.4473804,25.7735763 L23.4473804,25.7735763 L23.4473804,25.7735763 C23.2113895,25.3605923 22.7984055,25.0318907 22.233713,24.3997722 C22.233713,24.3997722 20.9863326,23.0681093 20.9610478,22.4444191 C20.9441913,22.0904328 21.205467,21.753303 21.7870159,21.9640091 C22.3685649,22.1747153 22.8995444,23.0006834 23.5148064,23.9109339 C23.7002278,23.776082 23.7845103,23.6833713 23.9193622,23.5906606 C24.2480638,23.9783599 24.2649203,23.9783599 24.8211845,24.6441913 C25.0403189,24.9138952 25.2594533,25.0908884 25.1498861,25.3605923 C24.9897494,25.7567198 24.9307517,25.5460137 24.290205,26.1528474 C24.1722096,26.3214123 24.4082005,26.4562642 24.323918,26.5658314 C24.2396355,26.6753986 24.1216401,26.7259681 24.0879271,26.8523918 C24.0205011,27.1305239 24.1722096,27.509795 24.1722096,27.509795 C24.1722096,27.509795 24.6104784,26.7933941 24.6779043,26.8186788 C25.0066059,26.9535308 24.9476082,26.8776765 25.2678815,26.5405467 C25.41959,26.38041 25.6050114,26.0264237 25.6050114,26.0264237 C25.6050114,26.0264237 25.7145786,26.1949886 25.7145786,26.3551253 C25.7145786,26.515262 25.5797267,26.5911162 25.5628702,26.8523918 C25.5544419,26.961959 25.6471526,27.3159453 25.7230068,27.3580866 C25.798861,27.4002278 25.8494305,27.3580866 25.9084282,27.3917995 C25.967426,27.4255125 25.8241458,28.2346241 25.7230068,28.3441913 C25.6218679,28.4537585 26.2371298,28.0829157 26.447836,27.4676538 C26.4984055,27.3496583 26.5405467,27.408656 26.6164009,27.3749431 C26.6501139,27.3665148 26.7765376,26.9788155 26.4309795,26.3551253 C26.3635535,26.2202733 26.3382688,26.0095672 26.4394077,26.1444191 C26.5489749,26.2792711 27.1558087,26.6332574 27.3243736,26.6332574 C27.4002278,26.6332574 27.4676538,26.5742597 27.509795,26.5826879 C27.9143508,26.6753986 27.8806378,27.0546697 27.9480638,27.1642369 C28.0829157,26.894533 28.0744875,26.8861048 28.0829157,26.8439636 C28.2177677,26.414123 28.1166287,26.2792711 27.6867882,26.1275626 C27.6530752,26.0601367 27.6952164,26.0095672 27.6193622,25.866287 C27.2316629,25.5881549 26.7596811,25.4785877 26.7006834,25.4280182 C26.6332574,25.3774487 26.7175399,25.3268793 26.8861048,25.284738 C27.0630979,25.2425968 27.3328018,25.0403189 27.4170843,24.93918 C27.6952164,24.6104784 28.2599089,24.6020501 28.3357631,24.8970387 C28.4116173,25.1920273 28.4621868,24.5261959 28.1840547,24.3997722 C27.9059226,24.2649203 27.5603645,24.2312073 27.4507973,24.2986333 C27.2653759,24.3997722 27.0209567,24.222779 26.9029613,24.2312073 C26.7175399,24.2396355 26.1865604,24.8211845 26.0854214,24.838041 C25.9842825,24.8548975 25.5965831,24.4756264 25.4364465,24.2986333 C25.0318907,23.8519362 24.4334852,23.1355353 24.4334852,23.1355353 C24.4334852,23.1355353 24.6694761,22.9585421 24.8464692,22.781549 C23.6075171,21.4498861 23.4895216,20.8851936 23.5485194,20.8261959 C23.708656,20.657631 25.7145786,22.1747153 26.5574032,22.646697 C27.2822323,23.0512528 29.1111617,24.222779 30.08041,23.194533 C30.2826879,22.9838269 30.2574032,22.8574032 30.08041,22.7394077 C28.8498861,21.9471526 26.2371298,20.1687927 25.352164,19.5535308 C25.284738,19.4692483 24.9223235,19.047836 25.5207289,19.2753986 L25.5207289,19.2753986 Z" id="Shape" fill="#E30613"></path>
                <path d="M20.8009112,6.51503417 C20.7840547,6.51503417 19.4523918,7.0881549 19.3343964,7.17243736 C19.1068337,6.97015945 18.432574,6.37175399 18.3567198,6.30432802 L18.3567198,6.29589977 C18.3567198,6.29589977 18.3567198,6.29589977 18.3567198,6.29589977 C18.3567198,6.29589977 18.3567198,6.29589977 18.3567198,6.29589977 L18.3567198,6.30432802 C18.2808656,6.37175399 17.6066059,6.97015945 17.3790433,7.17243736 C17.2610478,7.07972665 15.929385,6.51503417 15.9125285,6.51503417 C15.9125285,6.51503417 16.2833713,7.07129841 16.5193622,7.45899772 C16.7553531,7.85512528 16.7047836,8.38610478 16.7047836,8.38610478 L20.0255125,8.38610478 C20.0255125,8.38610478 19.9749431,7.84669704 20.2109339,7.45899772 C20.4216401,7.07972665 20.8009112,6.51503417 20.8009112,6.51503417 L20.8009112,6.51503417 Z" id="Shape" fill="#E30613" fill-rule="nonzero"></path>
                <path d="M17.2610478,10.0633257 C17.8004556,9.80205011 18.2724374,9.97061503 18.2724374,9.97061503 L17.4127563,10.6617312 C17.4211845,10.6617312 17.2694761,10.1981777 17.2610478,10.0633257 L17.2610478,10.0633257 Z" id="Shape" fill="#FFFFFF" fill-rule="nonzero"></path>
                <path d="M21.0116173,17.8594533 C21.7701595,17.7246014 22.7562642,17.4801822 23.8013667,15.6512528 C22.815262,15.4658314 22.646697,14.9685649 22.646697,14.9685649 L22.646697,14.9685649 C22.646697,14.9685649 23.1861048,14.8252847 23.9362187,15.4236902 C23.9783599,14.1510251 24.7200456,13.9487472 24.7200456,13.9487472 L24.7200456,13.9487472 C24.7200456,13.9487472 25.0318907,14.6567198 24.0794989,15.4911162 C25.0234624,15.6933941 25.2510251,16.1990888 25.2510251,16.1990888 L25.2510251,16.1990888 C25.2510251,16.1990888 24.7537585,16.376082 23.9867882,15.7439636 C22.8489749,17.8173121 21.6100228,18.2640091 21.0116173,18.2640091 C21.0369021,17.9943052 21.0116173,17.9268793 21.0116173,17.8594533 L21.0116173,17.8594533 Z" id="Shape" fill="#FFFFFF" fill-rule="nonzero"></path>
                <path d="M16.8143508,16.5867882 C16.8396355,17.438041 16.9323462,18.1712984 17.0503417,18.8118451 L17.0503417,18.8118451 C17.3200456,20.2193622 17.7498861,21.1296128 18.0785877,21.652164 C18.3061503,22.0145786 18.466287,22.2 18.5,22.2421412 C18.5,22.2505695 18.5,22.2505695 18.5,22.2505695 C18.5,22.2505695 18.5,22.2505695 18.5,22.2505695 C18.5,22.2505695 18.5,22.2505695 18.5,22.2505695 C18.5,22.2505695 18.5,22.2505695 18.5,22.2421412 C18.533713,22.2 18.6938497,22.0230068 18.9214123,21.652164 C19.2501139,21.1211845 19.6883827,20.2109339 19.9496583,18.8118451 L19.9496583,18.8118451 C20.0676538,18.1797267 20.1603645,17.438041 20.1856492,16.5867882 C20.1940774,16.5952164 16.822779,16.5952164 16.8143508,16.5867882 L16.8143508,16.5867882 Z" id="Shape" fill="#FFFFFF"></path>
                <path d="M16.0052392,17.8594533 C15.246697,17.7246014 14.2605923,17.4801822 13.2154897,15.6512528 C14.2015945,15.4658314 14.3701595,14.9685649 14.3701595,14.9685649 L14.3701595,14.9685649 C14.3701595,14.9685649 13.8307517,14.8252847 13.0806378,15.4236902 C13.0384966,14.1510251 12.2968109,13.9487472 12.2968109,13.9487472 L12.2968109,13.9487472 C12.2968109,13.9487472 11.9849658,14.6567198 12.9373576,15.4911162 C11.9933941,15.6933941 11.7658314,16.1990888 11.7658314,16.1990888 L11.7658314,16.1990888 C11.7658314,16.1990888 12.2630979,16.376082 13.0300683,15.7439636 C14.1678815,17.8173121 15.4068337,18.2640091 16.0052392,18.2640091 C15.9799544,17.9943052 16.0052392,17.9268793 16.0052392,17.8594533 L16.0052392,17.8594533 Z" id="Shape" fill="#FFFFFF" fill-rule="nonzero"></path>
                <polygon id="Shape" fill="#E30613" fill-rule="nonzero" points="19.4439636 20.2193622 19.4439636 19.7726651 18.3482916 19.7726651 18.3482916 18.9298405 19.3259681 18.9298405 19.3259681 18.4831435 18.3482916 18.4831435 18.3482916 17.7751708 19.3175399 17.7751708 19.3175399 17.3284738 17.6908884 17.3284738 17.6908884 20.2193622 19.4439636 20.2193622"></polygon>
            </g>
        </g>
    </g>
</svg>