<?xml version="1.0" encoding="UTF-8"?>
<svg width="49px" height="49px" viewBox="0 0 49 49" version="1.1" xmlns="http://www.w3.org/2000/svg" xmlns:xlink="http://www.w3.org/1999/xlink">
    <!-- Generator: Sketch 46.2 (44496) - http://www.bohemiancoding.com/sketch -->
    <title>Wpp/BMG</title>
    <desc>Created with Sketch.</desc>
    <defs></defs>
    <g id="SYMBOLS" stroke="none" stroke-width="1" fill="none" fill-rule="evenodd">
        <g id="Wpp/BMG">
            <g id="BMG---Borussia-Moenchengladbach" transform="translate(10.000000, 1.500000)">
                <g>
                    <polygon id="Shape" fill="#FFFFFF" fill-rule="nonzero" points="14.5116843 0.0836363636 0.0702404856 23.0139394 0.0702404856 23.0139394 14.5257324 45.8884848 28.9812244 23.0139394"></polygon>
                    <polygon id="Shape" fill="#000000" fill-rule="nonzero" points="14.5116843 1.54727273 0.983366799 23.0139394 14.5257324 44.4387879 28.05405 23.0139394"></polygon>
                    <polygon id="Shape" fill="#FFFFFF" fill-rule="nonzero" points="14.5116843 5.01818182 3.17486995 23.0139394 14.5257324 40.9678788 25.8765949 23.0139394"></polygon>
                    <polygon id="Shape" fill="#000000" fill-rule="nonzero" points="14.5116843 6.60727273 4.17228485 23 14.5257324 39.3787879 24.8651319 23"></polygon>
                    <polygon id="Shape" fill="#FFFFFF" fill-rule="nonzero" points="14.5116843 7.87575758 4.98707448 23 14.5257324 38.110303 24.0643904 23"></polygon>
                    <polygon id="Shape" fill="#000000" fill-rule="nonzero" points="14.5116843 7.52727273 11.6318244 11.8066667 17.4758328 11.8066667"></polygon>
                    <polygon id="Shape" fill="#000000" fill-rule="nonzero" points="19.6813841 30.6248485 9.48246556 30.6248485 5.66138314 24.6309091 23.3198412 24.6309091"></polygon>
                    <polygon id="Shape" fill="#000000" fill-rule="nonzero" points="9.58080224 15.2078788 19.5409031 15.2078788 23.1793603 21.2018182 5.75971982 21.2018182"></polygon>
                    <polygon id="Shape" fill="#000000" fill-rule="nonzero" points="14.5116843 38.709697 11.5334877 33.970303 17.6725062 33.970303"></polygon>
                    <g id="B" transform="translate(9.693187, 15.333333)" fill-rule="nonzero">
                        <path d="M0.0421442914,15.2218182 L7.22072192,15.2218182 C9.2717441,15.2218182 11.0839486,13.2842424 11.0839486,10.6078788 C11.0839486,9.10242424 10.40964,8.18242424 10.0443894,7.68060606 C10.4517843,7.26242424 11.0699005,6.69090909 11.0699005,4.55818182 C11.0699005,3.02484848 9.7634275,0.0278787879 6.70094233,0.0278787879 L0.0421442914,0.0278787879 L0.0421442914,15.2218182 Z" id="Shape" fill="#000000"></path>
                        <path d="M0.575971982,14.72 L6.54641326,14.72 C8.47100256,14.72 10.5079766,13.4793939 10.5079766,10.6357576 C10.5079766,9.22787879 9.86176418,8.36363636 9.37008078,7.70848485 C9.7493794,7.31818182 10.5501209,6.69090909 10.5501209,4.68363636 C10.5501209,3.24787879 9.72128321,0.515757576 6.22330703,0.515757576 L0.575971982,0.515757576 L0.575971982,14.72 Z" id="Shape" fill="#FFFFFF"></path>
                        <path d="M1.09575158,14.2181818 L6.13901844,14.2181818 C8.34456969,14.2181818 10.0022452,13.0751515 10.0022452,10.4266667 C10.0022452,9.11636364 9.08911884,7.97333333 8.61148354,7.70848485 C9.03292645,7.45757576 10.0443894,6.76060606 10.0443894,4.89272727 C10.0443894,3.40121212 9.22959981,1.01757576 5.98448937,1.01757576 L1.09575158,1.01757576 L1.09575158,14.2181818 Z" id="Shape" fill="#000000"></path>
                        <path d="M3.31535092,8.76787879 L5.8721046,8.76787879 C6.71499042,8.76787879 7.51573196,9.25575758 7.51573196,10.1478788 C7.51573196,11.2490909 6.74308662,11.5975758 5.71757553,11.5975758 L3.30130282,11.5975758 L3.30130282,8.76787879 L3.31535092,8.76787879 Z" id="Shape" fill="#FFFFFF"></path>
                        <path d="M3.31535092,3.47090909 L5.52090217,3.47090909 C6.25140322,3.47090909 7.27691431,3.61030303 7.27691431,4.8369697 C7.27691431,6.17515152 6.29354751,6.25878788 5.52090217,6.25878788 L3.31535092,6.25878788 L3.31535092,3.47090909 L3.31535092,3.47090909 Z" id="Shape" fill="#FFFFFF"></path>
                        <path d="M3.84917861,3.97272727 L5.45066168,3.97272727 C5.97044128,3.97272727 6.68689423,4.00060606 6.68689423,4.86484848 C6.68689423,5.71515152 5.99853747,5.7569697 5.45066168,5.7569697 L3.84917861,5.7569697 L3.84917861,3.97272727 Z" id="Shape" fill="#000000"></path>
                        <path d="M3.87727481,9.26969697 L5.61923885,9.26969697 C6.18116273,9.26969697 6.89761569,9.59030303 6.89761569,10.189697 C6.89761569,10.970303 6.19521083,11.0957576 5.52090217,11.0957576 L3.87727481,11.0957576 L3.87727481,9.26969697 Z" id="Shape" fill="#000000"></path>
                    </g>
                </g>
            </g>
        </g>
    </g>
</svg>