<?xml version="1.0" encoding="UTF-8" standalone="no"?>
<svg width="49px" height="49px" viewBox="0 0 49 49" version="1.1" xmlns="http://www.w3.org/2000/svg" xmlns:xlink="http://www.w3.org/1999/xlink">
    <!-- Generator: Sketch 46.2 (44496) - http://www.bohemiancoding.com/sketch -->
    <title>Wpp/RBL</title>
    <desc>Created with Sketch.</desc>
    <defs></defs>
    <g id="SYMBOLS" stroke="none" stroke-width="1" fill="none" fill-rule="evenodd">
        <g id="Wpp/RBL">
            <g id="RBL---RB-Leipzig" transform="translate(0.000000, 12.000000)">
                <path d="M36.2912766,0.0157572614 L36.2912766,7.53197095 C36.6040426,7.66328147 37.0367021,7.88388313 37.3390426,8.0309509 L37.3234043,7.92590249 C37.3181915,6.75461272 37.662234,6.91218534 38.4389362,6.57603043 C38.6318085,6.4919917 38.6943617,6.12432227 39.0071277,6.09806017 C39.3824468,6.06654564 40.2269149,6.21361342 40.5605319,6.38694329 C40.7690426,6.4919917 40.8159574,6.64956432 40.8941489,6.84390387 C40.9723404,7.05400069 41.3632979,7.20632089 41.4519149,7.45318465 C41.6291489,7.92590249 41.4362766,8.59821231 40.9410638,8.79255187 C40.7690426,8.86083333 39.9610638,8.81356155 39.9610638,8.81356155 C39.9558511,8.97638658 39.9662766,9.22325035 39.9506383,9.38607538 C39.9454255,9.47011411 39.9506383,9.61192946 39.9506383,9.61192946 C39.9506383,9.61192946 40.112234,9.66445367 40.1904255,9.68546335 C41.5196809,10.0426279 48.7758511,12.2328873 48.9478723,12.6373237 C48.9947872,12.7266148 48.8957447,12.7476245 48.8957447,12.7476245 C48.7185106,12.7633817 44.1521277,11.7076452 43.2868085,11.5448202 C42.3068085,11.3609855 41.5353191,11.2034129 40.2998936,11.0195781 L40.3051064,11.0878596 C40.3051064,11.492296 40.2217021,11.4870436 39.8880851,11.6025968 L39.8985106,11.6761307 C40.3155319,11.7601694 41.6239362,11.9597614 41.9106383,12.154101 C42.2234043,12.3641978 42.963617,12.1015768 43.4796809,12.8106535 C43.6152128,12.9944882 43.6204255,13.7665941 43.4848936,13.9504288 C43.2659574,14.2498167 43.0418085,14.1185062 42.7394681,14.1605256 C42.5570213,14.1867877 42.4684043,14.36537 42.317234,14.4494087 C42.1712766,14.528195 41.962766,14.4966805 41.8011702,14.5019329 C41.4102128,14.5124378 41.2851064,14.1552732 41.0088298,13.966186 C40.8785106,13.8716425 40.7169149,13.9346715 40.5709574,13.8979046 C40.3520213,13.8401279 40.2060638,13.5827593 40.0131915,13.4829633 C39.8985106,13.4251867 39.6326596,13.440944 39.5231915,13.5092254 C38.8298936,13.9399239 37.0158511,13.4987206 36.3069149,13.0575173 L36.327766,17.6061134 C36.327766,17.6061134 36.327766,18.3677144 35.8742553,19.1555775 C33.6640426,23.0108541 28.9829787,25.2904046 24.5521277,25.295657 L24.4739362,25.295657 C20.0430851,25.2904046 15.3620213,23.0791355 13.1361702,19.2343638 C12.6826596,18.4465007 12.6826596,17.6166183 12.6826596,17.6166183 L12.7035106,13.0680221 C11.9945745,13.5092254 10.1857447,13.9504288 9.48723404,13.5197303 C9.37776596,13.4514488 9.11191489,13.4356916 8.99723404,13.4934682 C8.8043617,13.5932642 8.65840426,13.8506328 8.43946809,13.9084094 C8.29351064,13.9451763 8.13191489,13.8873997 8.00159574,13.9766909 C7.72531915,14.165778 7.60021277,14.5229426 7.20925532,14.5124378 C7.04765957,14.5071853 6.83914894,14.5386999 6.69319149,14.4599136 C6.54202128,14.3758748 6.45340426,14.1972925 6.27095745,14.1710304 C5.97382979,14.1290111 5.74446809,14.2603216 5.52553191,13.9609336 C5.39,13.7770989 5.39521277,13.0049931 5.53074468,12.8211584 C6.04680851,12.1120816 6.78702128,12.3747026 7.09978723,12.1646058 C7.38648936,11.9702663 8.70010638,11.7706743 9.11191489,11.6866355 L9.12234043,11.6131017 C8.7887234,11.4975484 8.70531915,11.5028008 8.70531915,11.0983645 L8.71053191,11.030083 C7.47510638,11.2139177 6.70882979,11.3767427 5.72361702,11.555325 C4.85829787,11.7181501 0.291914894,12.7738866 0.114680851,12.7581293 C0.114680851,12.7581293 0.0156382979,12.7371196 0.0625531915,12.6478285 C0.234574468,12.2381397 7.49074468,10.0531328 8.82,9.69596819 C8.89819149,9.67495851 9.05978723,9.6224343 9.05978723,9.6224343 C9.05978723,9.6224343 9.065,9.48061895 9.05978723,9.39658022 C9.0493617,9.23375519 9.05457447,8.98689142 9.0493617,8.82406639 C9.0493617,8.82406639 8.24138298,8.87133817 8.0693617,8.80305671 C7.57414894,8.60871715 7.3812766,7.93640733 7.55851064,7.46368949 C7.64712766,7.21682573 8.03808511,7.05925311 8.1162766,6.85440871 C8.19446809,6.66006916 8.24138298,6.50249654 8.44989362,6.39744813 C8.78351064,6.22937068 9.63319149,6.07705048 10.0032979,6.10856501 C10.3160638,6.13482711 10.378617,6.50249654 10.5714894,6.58653527 C11.3481915,6.92269018 11.6974468,6.76511757 11.6870213,7.93640733 L11.671383,8.04145574 C11.9789362,7.89438797 12.406383,7.67903873 12.7191489,7.5424758 L12.7191489,0.0157572614 L36.2912766,0.0157572614 Z" id="Shape" fill="#FFFFFF" fill-rule="nonzero"></path>
                <path d="M24.9065957,17.9370159 L25.2402128,21.8343119 L25.6832979,21.797545 L25.3496809,17.900249 L24.9065957,17.9370159 Z M21.8571277,17.3960166 L20.5904255,21.0937206 L21.7632979,21.498157 L22.1698936,20.3163624 L21.7476596,20.1692946 L21.4870213,20.9256432 L21.158617,20.8100899 L22.2793617,17.537832 L21.8571277,17.3960166 Z M23.1342553,18.2521611 L22.7745745,21.2933126 C22.7485106,21.5244191 22.9101064,21.7397683 23.1446809,21.7660304 L23.9578723,21.860574 L24.01,21.4141183 L23.2228723,21.3195747 L23.3740426,20.0484889 L23.9630851,20.1167704 L24.0152128,19.6703147 L23.4261702,19.6020332 L23.5773404,18.3309474 L24.3644681,18.425491 L24.4165957,17.9790353 L23.6034043,17.8792393 C23.3688298,17.8529772 23.1603191,18.0210546 23.1342553,18.2521611 Z M29.4,15.9200864 L29.0820213,16.2352317 L31.7978723,18.9927524 L31.8135106,19.0085097 L32.1314894,18.6933645 L29.4156383,15.9358437 L29.4,15.9200864 Z M27.2367021,17.8687344 C27.1845745,17.6901521 27.0229787,17.5693465 26.8353191,17.5693465 C26.793617,17.5693465 26.7519149,17.5745989 26.7102128,17.5903562 L25.9282979,17.8319675 L27.0542553,21.5506812 L27.0594681,21.5716909 L27.4869149,21.4403804 L26.9864894,19.7858679 L27.3409574,19.6755671 C27.4504255,19.6440526 27.5390426,19.5705187 27.5911702,19.4707227 C27.6432979,19.3709267 27.6537234,19.2553734 27.6224468,19.1450726 L27.2367021,17.8687344 Z M26.8561702,19.349917 L26.4860638,18.126103 L26.8196809,18.0210546 L27.1897872,19.2448686 L26.8561702,19.349917 Z M33.231383,16.2194744 L31.9021277,15.3738347 L31.5737234,15.8990768 L31.9490426,16.1406881 L32.0428723,15.9936203 L33.1167021,16.676435 L32.9290426,16.975823 L30.4008511,15.3685823 L30.5885106,15.0691943 L31.0993617,15.3948444 L31.3391489,15.0166701 L30.9534043,14.7698064 C30.8543617,14.7067773 30.7396809,14.6752628 30.625,14.6752628 C30.4112766,14.6752628 30.2131915,14.7855636 30.0985106,14.9641459 C29.9160638,15.253029 30.0046809,15.6417082 30.291383,15.8255429 L32.5797872,17.2804633 C32.6788298,17.3434924 32.7935106,17.3750069 32.9081915,17.3750069 C33.1219149,17.3750069 33.32,17.2647061 33.4346809,17.0861238 C33.6067021,16.7919882 33.5232979,16.4033091 33.231383,16.2194744 Z M29.556383,19.1135581 L29.978617,19.7911203 L29.6971277,19.9697026 L28.753617,16.9863278 L28.5294681,16.6186584 L27.4817021,17.2804633 L28.1385106,18.3414523 L28.5138298,18.1050934 L28.0915957,17.4275311 L28.3730851,17.2489488 L29.3165957,20.2323237 L29.5407447,20.5999931 L30.5885106,19.9381881 L29.9317021,18.8771992 L29.556383,19.1135581 Z" id="Shape" fill="#001F47" fill-rule="nonzero"></path>
                <path d="M14.4080851,18.9402282 L14.4185106,18.9559855 C16.6912766,22.3700588 20.4601064,24.0665906 24.5052128,24.0665906 C28.5503191,24.0665906 32.3243617,22.3700588 34.5919149,18.9559855 L34.6023404,18.9402282 L34.612766,18.9192185 C34.9515957,18.325695 35.102766,17.9317635 35.102766,16.6816874 L35.102766,13.3726625 L34.4876596,13.3726625 L34.4876596,16.6816874 C34.4876596,17.8582296 34.3521277,18.1366079 34.0810638,18.6093257 C32.0011702,21.7345159 28.487766,23.446805 24.5052128,23.446805 C20.5226596,23.446805 17.0040426,21.7397683 14.9293617,18.6093257 C14.6582979,18.1313555 14.522766,17.8529772 14.522766,16.6816874 L14.522766,13.3674101 L13.9076596,13.3674101 L13.9076596,16.6816874 C13.9076596,17.9317635 14.0588298,18.325695 14.3976596,18.9192185 L14.4080851,18.9402282 Z" id="Shape" fill="#001F47" fill-rule="nonzero"></path>
                <polygon id="Shape" fill="#001F47" fill-rule="nonzero" points="13.7617021 7.06450553 13.7617021 1.06624136 35.2539362 1.06624136 35.2539362 7.06450553 35.592766 7.22733057 35.592766 0.719581604 13.4228723 0.719581604 13.4228723 7.22207815"></polygon>
                <polygon id="Shape" fill="#001F47" fill-rule="nonzero" points="13.9076596 1.21330913 13.9076596 6.99097165 14.522766 6.70208852 14.522766 1.83309474 34.4928723 1.83309474 34.4928723 6.71259336 35.1079787 6.99622407 35.1079787 1.21330913"></polygon>
                <path d="M35.2539362,13.3726625 L35.2539362,16.6816874 C35.2539362,17.9685304 35.0975532,18.3729668 34.7430851,18.9927524 L34.7326596,19.0137621 L34.7170213,19.0347718 C32.4181915,22.4961169 28.6024468,24.2136584 24.5052128,24.2136584 C20.4131915,24.2136584 16.592234,22.4961169 14.298617,19.0347718 L14.2829787,19.0137621 L14.2725532,18.9927524 C13.9180851,18.3729668 13.7617021,17.9685304 13.7617021,16.6816874 L13.7617021,13.3674101 L13.4228723,13.3674101 L13.4228723,16.6816874 C13.4228723,18.0420643 13.6001064,18.5042773 13.9754255,19.1660823 L13.9962766,19.1975968 L14.0171277,19.2291113 C16.3785106,22.7797476 20.2985106,24.5550657 24.5104255,24.5550657 C28.7171277,24.5550657 32.6423404,22.7797476 35.0037234,19.2291113 L35.0245745,19.1975968 L35.0454255,19.1660823 C35.4207447,18.5042773 35.5979787,18.0473167 35.5979787,16.6816874 L35.5979787,13.3726625 L35.2539362,13.3726625 L35.2539362,13.3726625 Z" id="Shape" fill="#001F47" fill-rule="nonzero"></path>
                <path d="M24.4947872,4.00759682 C25.2402128,4.00759682 25.9543617,4.14941217 26.6059574,4.4120332 C26.5851064,4.5170816 26.5069149,4.81646957 26.2775532,5.19989627 C25.0994681,5.04757607 23.7858511,5.17363416 23.7858511,5.17363416 L22.696383,4.30698479 C23.2593617,4.11264523 23.8640426,4.00759682 24.4947872,4.00759682 L24.4947872,4.00759682 Z" id="Shape" fill="#001F47"></path>
                <path d="M29.4990426,12.3536929 C29.0611702,12.2433921 28.6545745,12.0280429 28.2167021,11.9072372 C28.0915957,11.9755187 27.9873404,12.0385477 27.9039362,12.0910719 C27.4191489,12.6478285 26.8301064,13.1152939 26.1576596,13.4672061 C24.5417021,14.3443603 22.5556383,14.3548651 20.9084043,13.6090214 C20.5539362,13.4514488 20.2151064,13.2571093 19.8971277,13.0260028 C20.8562766,14.3758748 22.3888298,15.2792911 24.1351064,15.389592 C24.1976596,15.389592 24.2602128,15.389592 24.3279787,15.3843396 C24.3384043,15.3948444 24.3540426,15.4000968 24.3748936,15.4000968 C25.48,15.4000968 26.5381915,15.0796992 27.4347872,14.528195 C28.2896809,14.0239627 28.9934043,13.2886238 29.4781915,12.3852075 L29.5303191,12.3589454 C29.5251064,12.3641978 29.5094681,12.3589454 29.4990426,12.3536929 Z" id="Shape" fill="#DADADA" fill-rule="nonzero"></path>
                <path d="M26.5798936,8.84507607 C26.8718085,9.45960927 27.2262766,10.1109094 27.4660638,10.5416079 C27.7892553,10.0636376 27.8361702,9.69596819 28.1280851,8.86608575 C28.242766,8.54568811 28.6389362,8.0834751 29.0142553,7.70530083 C28.4408511,7.32712656 27.6641489,6.95945712 27.6641489,6.95945712 C27.0751064,7.7998444 26.5798936,8.84507607 26.5798936,8.84507607 Z" id="Shape" fill="#001F47" fill-rule="nonzero"></path>
                <path d="M20.647766,5.53079876 C20.1421277,6.0035166 19.7251064,6.56552559 19.4175532,7.19581604 C19.4957447,7.25884509 19.5635106,7.31662172 19.6312766,7.37439834 C19.6781915,7.31136929 19.7251064,7.25359267 19.7720213,7.19056362 C20.1264894,6.40270055 20.512234,5.74614799 20.647766,5.53079876 Z" id="Shape" fill="#001F47" fill-rule="nonzero"></path>
                <path d="M24.1455319,8.88709544 C24.1455319,8.88709544 23.4418085,7.75782503 22.7015957,6.91218534 C22.7015957,6.91218534 21.1481915,7.61075726 20.5747872,7.91014523 C20.5747872,7.91014523 20.5539362,8.11498963 20.5382979,8.4406397 C20.8823404,9.03416321 21.0543617,9.66970609 21.492234,10.5836272 C21.5964894,10.6571611 21.6798936,10.7464523 21.7580851,10.8462483 C22.0656383,10.9355394 22.4201064,11.030083 22.8162766,11.1246266 C22.8267021,11.129879 23.8067021,9.55415284 24.1455319,8.88709544 Z" id="Shape" fill="#001F47" fill-rule="nonzero"></path>
                <path d="M24.0152128,13.1152939 L26.46,13.0470124 L26.9343617,14.3916321 C26.0117021,14.9431362 24.8961702,15.2320194 24.8961702,15.2320194 C23.7285106,14.9746508 23.0560638,14.465166 23.0560638,14.465166 L24.0152128,13.1152939 L24.0152128,13.1152939 Z" id="Shape" fill="#001F47"></path>
                <path d="M20.001383,12.1488485 C19.7980851,12.2276349 19.6,12.3116736 19.4853191,12.3484405 C19.4696809,12.3536929 19.4592553,12.3589454 19.443617,12.3589454 C19.6417021,12.7266148 19.8762766,13.0470124 20.1317021,13.3306432 C20.3767021,13.5985166 20.6425532,13.8296231 20.9344681,14.0292151 C20.9918085,13.9871957 21.0491489,13.9399239 21.0960638,13.8873997 C21.0960638,13.8926521 20.4079787,12.8894398 20.001383,12.1488485 Z" id="Shape" fill="#001F47" fill-rule="nonzero"></path>
                <path d="M6.20840426,13.0154979 C5.93734043,13.0890318 6.02074468,13.404177 5.95819149,13.6195263 C5.96861702,13.6352835 5.98946809,13.6667981 6.01031915,13.6615456 C6.1093617,13.6195263 6.27617021,13.6510408 6.34914894,13.5564972 C6.38042553,13.4461964 6.42212766,13.3674101 6.43255319,13.2360996 C6.40648936,13.141556 6.30744681,13.0260028 6.20840426,13.0154979 Z M33.7735106,11.8389557 C33.6275532,11.8704703 33.476383,11.9387517 33.3095745,11.8967324 C33.1584043,11.8967324 32.9081915,11.7601694 32.8404255,11.9650138 C32.8143617,12.0963243 32.741383,12.2118776 32.7101064,12.3379357 C32.7101064,12.4062172 32.7726596,12.4692462 32.8352128,12.5007607 C32.9290426,12.5217704 33.0437234,12.5742946 33.1323404,12.5585373 C33.2887234,12.4482365 33.2782979,12.2433921 33.4398936,12.1278389 C33.5232979,12.1488485 33.5337234,12.2644018 33.6275532,12.253897 C33.721383,12.2433921 33.8152128,12.1856155 33.8673404,12.0963243 C33.8934043,12.0385477 33.9038298,11.9650138 33.8725532,11.9019848 C33.8412766,11.8757227 33.8152128,11.8442082 33.7735106,11.8389557 Z M38.8298936,8.87133817 C38.8507447,8.9291148 38.9602128,9.04466805 38.887234,9.09193983 C38.7360638,9.19698824 37.9593617,9.05517289 37.9176596,9.17597856 C37.9593617,9.3388036 38.4232979,9.46486169 38.5692553,9.52263831 C38.7464894,9.59091978 38.9080851,9.64344398 39.0957447,9.54890041 C39.3042553,9.44385201 39.4397872,9.17072614 39.4032979,8.93961964 C39.3876596,8.83457123 39.2729787,8.57720263 39.2104255,8.48791148 C39.1478723,8.40387275 38.642234,7.99943638 38.7829787,7.94691217 C38.955,8.0046888 39.1895745,7.95216459 39.3094681,8.11498963 C39.6274468,8.20428077 39.9714894,8.2620574 40.2998936,8.31983402 C40.5084043,8.35660097 40.7481915,8.29882434 40.8732979,8.11498963 C40.9410638,8.01519364 40.9410638,7.8261065 40.8889362,7.71580567 C40.826383,7.58974758 40.6439362,7.55298064 40.5240426,7.51096127 C40.3780851,7.5424758 40.5396809,7.67378631 40.4145745,7.72631051 L40.1278723,7.68954357 C39.9506383,7.50570885 40.3207447,7.52671853 40.3415957,7.42692254 C40.3728723,7.27985477 40.2373404,7.14854426 40.3259574,7.00672891 C40.3103191,6.96996196 40.2894681,6.93319502 40.2529787,6.92269018 C40.1070213,6.87016598 39.2312766,6.66006916 39.1061702,6.66532158 L39.0696809,6.70734094 C39.1061702,6.75461272 39.2521277,6.89117566 39.2573404,6.9016805 C39.3146809,7.00672891 38.9237234,7.08551521 38.8559574,7.09602006 C38.5431915,7.16430152 37.6987234,7.26409751 37.8238298,7.76307746 C37.8915957,8.01519364 38.7256383,8.61396957 38.8298936,8.87133817 Z M8.68968085,8.32508645 C9.01808511,8.26730982 9.36212766,8.2095332 9.68010638,8.12024205 C9.8,7.95741701 10.0345745,8.0046888 10.2065957,7.95216459 C10.3473404,8.0046888 9.84170213,8.41437759 9.77914894,8.4931639 C9.71659574,8.58245505 9.60191489,8.83982365 9.5862766,8.94487206 C9.54978723,9.17597856 9.68531915,9.45435685 9.89382979,9.55415284 C10.0814894,9.64344398 10.2430851,9.5961722 10.4203191,9.52789073 C10.5714894,9.47011411 11.0302128,9.34405602 11.0719149,9.18123098 C11.0302128,9.06042531 10.2535106,9.20224066 10.1023404,9.09719225 C10.0293617,9.04466805 10.1388298,8.9291148 10.1596809,8.87659059 C10.2639362,8.61922199 11.0979787,8.02044606 11.1553191,7.78408714 C11.2804255,7.28510719 10.4359574,7.18005878 10.1231915,7.11702974 C10.0606383,7.10127248 9.66446809,7.02773859 9.72180851,6.92269018 C9.72702128,6.91218534 9.87819149,6.77562241 9.90946809,6.72835062 L9.87297872,6.68633126 C9.75308511,6.67582642 8.87734043,6.88592324 8.73138298,6.94369986 C8.69489362,6.95945712 8.67404255,6.99622407 8.65840426,7.02773859 C8.74702128,7.16955394 8.61148936,7.30086445 8.64276596,7.44793223 C8.66361702,7.54772822 9.03893617,7.52146611 8.85648936,7.71055325 L8.56978723,7.74732019 C8.44468085,7.68954357 8.6062766,7.56348548 8.46031915,7.53197095 C8.34042553,7.57399032 8.15797872,7.61600968 8.09542553,7.73681535 C8.04329787,7.84711618 8.04329787,8.0309509 8.11106383,8.13599931 C8.24138298,8.30407676 8.48117021,8.36185339 8.68968085,8.32508645 Z M6.91734043,12.8211584 C6.90170213,12.7633817 6.55244681,12.8264108 6.53159574,12.8946923 C6.50553191,12.9944882 6.8287234,13.0470124 6.91734043,12.8211584 Z M42.072234,12.8211584 C42.1608511,13.04176 42.4840426,12.9944882 42.4579787,12.8946923 C42.4371277,12.8316632 42.0878723,12.7686342 42.072234,12.8211584 Z M42.786383,13.0154979 C42.6873404,13.0260028 42.5882979,13.141556 42.562234,13.2360996 C42.5726596,13.3621577 42.6143617,13.440944 42.6456383,13.5564972 C42.718617,13.6510408 42.8802128,13.6195263 42.9844681,13.6615456 C43.0053191,13.6667981 43.0261702,13.6352835 43.0365957,13.6195263 C42.9740426,13.404177 43.052234,13.0890318 42.786383,13.0154979 Z M46.6803191,11.9387517 C45.0591489,11.4345194 43.4223404,11.0248306 41.7803191,10.5941321 C41.2903191,10.468074 40.7951064,10.3472683 40.2998936,10.2369675 C39.5023404,10.0636376 38.7047872,9.86404564 37.907234,9.71697787 C37.8342553,9.70122061 37.7404255,9.71697787 37.7091489,9.63293914 C37.7352128,9.48061895 37.5684043,9.45960927 37.4641489,9.42284232 C37.2191489,9.34405602 36.9793617,9.26526971 36.7291489,9.19698824 C36.5467021,9.14446404 36.3694681,9.04992047 36.1870213,9.00790111 C35.9576596,8.96062932 35.7752128,8.9553769 35.6188298,8.7505325 L35.6553191,8.72952282 C35.8742553,8.81881397 36.2182979,9.00264869 36.4476596,8.85032849 C36.5571277,8.77679461 36.6665957,8.58245505 36.6144681,8.45114454 C36.5779787,8.35134855 36.4580851,8.34084371 36.3746809,8.30407676 C36.0202128,8.14650415 35.6709574,7.95741701 35.3217021,7.78408714 C34.5867021,7.4164177 33.8569149,7.04349585 33.1271277,6.670574 C32.7935106,6.50249654 32.4181915,6.30290456 32.0532979,6.22411826 C31.7561702,6.16108921 31.4173404,6.23987552 31.1567021,6.39744813 C30.9012766,6.55502075 30.9064894,6.91743776 30.713617,6.88067082 C30.6875532,6.84915629 30.6614894,6.81238935 30.6667021,6.77036999 C30.5885106,6.64431189 30.3487234,6.99622407 30.1506383,7.09602006 C29.712766,7.31662172 28.9412766,8.16751383 28.6285106,8.56669779 C28.4304255,8.81881397 28.3470213,9.14446404 28.2740426,9.45435685 L28.3157447,9.51213347 C28.4095745,9.53314315 28.4981915,9.49637621 28.5868085,9.45435685 C28.665,9.47536653 28.6597872,9.57516252 28.7014894,9.63293914 C29.0194681,10.06889 29.8691489,9.81677386 30.3382979,9.97434647 C30.3435106,10.0006086 30.3382979,10.0268707 30.3070213,10.0321231 C30.0985106,10.0583852 29.822234,10.0163658 29.6085106,10.0111134 C29.1185106,10.0006086 28.6232979,9.99010373 28.1332979,9.96384163 L28.0759574,9.99535615 C28.0290426,10.0951521 27.7579787,10.6781708 27.7162766,10.730695 C27.6485106,10.8042289 27.5546809,10.8620055 27.4817021,10.9407918 C27.2888298,11.1561411 27.1532979,11.4135097 26.9135106,11.5815871 C26.8405319,11.6288589 26.6997872,11.6603734 26.6685106,11.7391598 L26.705,11.7811791 C27.4295745,11.8389557 27.5025532,11.0721024 27.9925532,10.8987725 C28.018617,10.9040249 28.0290426,10.930287 28.0238298,10.9565491 C27.9039362,11.0773548 27.773617,11.2506846 27.6954255,11.4082573 C27.4139362,11.9860235 27.2106383,11.8126936 26.9343617,12.0753147 L26.9760638,12.1383437 C27.7788298,12.1120816 27.9247872,11.6603734 28.1906383,11.6236065 C28.4147872,11.592092 29.2540426,11.9860235 29.5303191,12.0648098 C29.6710638,12.1015768 29.8065957,12.1488485 29.9525532,12.1488485 C29.9994681,12.1488485 30.067234,12.1225864 30.1089362,12.1225864 C30.2184043,12.1278389 30.2392553,12.3221784 30.4738298,12.2066252 C30.6145745,12.1383437 30.625,11.9334993 30.6406383,11.7969364 C30.6614894,11.6288589 30.4581915,11.4870436 30.4738298,11.3977524 C30.4946809,11.2716943 30.6562766,11.4397718 30.6875532,11.329471 C30.7084043,11.2611895 30.625,11.1246266 30.5885106,11.0721024 C30.4842553,10.9355394 30.1819149,10.7044329 30.223617,10.5048409 C30.2288298,10.4838313 30.2861702,10.4418119 30.3018085,10.4470643 L31.2765957,10.56787 C31.3078723,10.5731224 31.4590426,10.9197822 31.4590426,10.9565491 C31.4590426,11.0090733 31.3182979,11.3714903 31.292234,11.4397718 C31.2088298,11.6341113 31.0680851,11.7759267 31.0732979,12.0017808 C31.0785106,12.2801591 31.2609574,12.5375277 31.4017021,12.7686342 C31.5528723,13.0260028 31.8030851,12.8999447 32.0220213,12.9734786 C32.1158511,13.0049931 32.2096809,13.0680221 32.3035106,13.1100415 C32.585,13.2360996 32.9029787,13.3621577 33.2053191,13.4356916 C33.3721277,13.4777109 33.6223404,13.4199343 33.721383,13.2676141 C33.7943617,13.1573133 33.5545745,13.1205463 33.6588298,12.9944882 C33.7161702,12.9262068 33.7839362,12.9314592 33.8621277,12.941964 C34.0289362,12.9629737 34.8994681,13.0680221 34.9880851,12.9682261 C35.0193617,12.9367116 34.9724468,12.8894398 34.946383,12.878935 C34.7691489,12.7948963 34.5032979,12.7528769 34.3104255,12.7003527 C34.0758511,12.6320712 33.8360638,12.616314 33.6014894,12.5480325 C33.4034043,12.4850035 33.4138298,12.6898479 33.2730851,12.779139 C33.0593617,12.9157019 32.4911702,12.6425761 32.4181915,12.3957123 C32.3504255,12.1593534 32.5641489,11.8599654 32.7205319,11.6971404 C32.8404255,11.5710823 32.986383,11.555325 33.1062766,11.455529 C33.1792553,11.3925 33.1271277,11.2769467 33.1271277,11.192908 C33.2418085,11.0458402 33.6848936,11.2821992 33.8673404,11.229675 C34.0654255,11.1771508 33.9142553,10.9145297 34.0862766,10.8620055 C34.232234,10.9040249 34.3469149,11.0090733 34.4928723,11.0615975 C34.5971277,11.1036169 34.7847872,11.1193741 34.857766,11.2139177 C34.9151064,11.2874516 34.857766,11.3925 34.8421277,11.4765387 C34.8942553,11.5763347 35.0558511,11.6025968 35.1601064,11.6183541 C35.3217021,11.6446162 35.4989362,11.6341113 35.6657447,11.6498686 C35.8325532,11.6656259 35.9941489,11.7128976 36.1557447,11.7286549 L36.7030851,11.7811791 C36.8334043,11.8442082 36.6718085,11.9597614 36.7917021,12.21713 C36.661383,12.1961203 36.1244681,12.0385477 36.0619149,12.21713 C36.5362766,12.6635858 37.6101064,12.9734786 38.2460638,13.0680221 C38.6370213,13.1257988 39.0488298,13.1100415 39.4397872,13.078527 C39.6847872,13.0575173 39.7317021,12.8316632 39.8828723,12.8001487 C40.0705319,12.7633817 40.2373404,13.0680221 40.3676596,13.1468084 C40.4875532,13.2203423 40.6126596,13.2886238 40.737766,13.3569053 C40.9567021,13.4777109 41.16,13.2676141 41.3268085,13.3621577 C41.5353191,13.4777109 41.6604255,14.0712344 41.9888298,13.9766909 C42.0565957,13.9556812 42.0930851,13.8926521 42.1139362,13.8348755 C42.1764894,13.6667981 42.0930851,13.5197303 42.051383,13.3621577 C42.1139362,13.2150899 42.3224468,13.440944 42.317234,13.2886238 C42.2911702,13.2571093 42.2598936,13.2360996 42.2234043,13.2255947 C41.8428723,13.1257988 41.9158511,12.7108575 41.3685106,12.6058091 C41.1235106,12.5585373 40.8785106,12.5007607 40.6282979,12.4534889 C40.5605319,12.4377317 40.3989362,12.479751 40.4041489,12.3694502 L40.4510638,12.3326833 L40.8889362,12.3221784 L40.8785106,12.2644018 C40.18,12.1751107 39.4919149,11.9755187 38.7934043,11.8914799 C38.7412766,11.8599654 38.6735106,11.6971404 38.6839362,11.6498686 C38.7047872,11.5185581 38.9080851,11.7601694 39.0123404,11.5080533 C39.0748936,11.3609855 38.9289362,11.2349274 39.043617,11.1613935 C39.3511702,11.2034129 39.6587234,11.2401798 39.9662766,11.2821992 C38.2304255,10.8620055 36.4737234,10.5153458 34.7378723,10.1004046 C34.3625532,10.0111134 33.9768085,9.94808437 33.6067021,9.83253112 L33.6119149,9.79051176 C35.1444681,10.005861 36.661383,10.3787828 38.2043617,10.5468603 L38.2043617,10.5100934 C37.3546809,10.3472683 36.5102128,10.1266667 35.6553191,9.97434647 C34.3834043,9.74323997 33.1062766,9.55415284 31.8291489,9.35456086 C30.9951064,9.22325035 30.1506383,9.07093015 29.311383,8.99739627 L29.2853191,9.05517289 C29.3426596,9.12345436 29.4208511,9.15496888 29.4938298,9.19698824 C29.5042553,9.2127455 29.5042553,9.23900761 29.488617,9.24951245 C29.3843617,9.23900761 28.9047872,9.27052213 28.9047872,9.15496888 C29.0820213,8.98689142 29.1237234,8.89760028 29.3843617,8.91860996 C29.7857447,8.9553769 30.1923404,9.01315353 30.5937234,9.06567773 C32.9029787,9.3650657 35.2226596,9.67495851 37.5162766,10.0741425 C39.935,10.4943361 42.3537234,10.9250346 44.7359574,11.5133057 C45.1164894,11.6078492 47.6707447,12.3064212 47.775,12.2854115 C47.686383,12.2328873 46.8419149,11.9860235 46.6803191,11.9387517 Z M29.3009574,11.4660339 C29.2384043,11.5133057 29.1237234,11.4870436 29.0403191,11.4765387 C28.9412766,11.4240145 28.9204255,11.3084613 28.91,11.1981604 C28.91,11.1718983 28.9152128,11.1456362 28.9412766,11.1193741 C29.0559574,11.1193741 29.1706383,11.1456362 29.243617,11.2401798 C29.2748936,11.3084613 29.3374468,11.3872476 29.3009574,11.4660339 Z M37.485,12.4009647 C37.7456383,12.4534889 38.0010638,12.4744986 38.2669149,12.5480325 C38.308617,12.5637898 38.3555319,12.6268188 38.3607447,12.6688382 C38.3451064,12.6951003 38.308617,12.7003527 38.287766,12.7003527 L37.2608511,12.4377317 L37.1461702,12.3589454 C37.2608511,12.3694502 37.3234043,12.3694502 37.485,12.4009647 Z M31.7509574,11.2611895 C31.761383,11.2139177 31.8082979,11.1666459 31.8552128,11.1718983 C31.917766,11.192908 31.9959574,11.2034129 32.0168085,11.2769467 L31.7718085,11.8021888 C31.605,12.0280429 31.7248936,12.3326833 31.782234,12.5585373 C31.7770213,12.5900519 31.7457447,12.6058091 31.7196809,12.6110615 C31.5528723,12.4429841 31.3964894,12.2013728 31.4590426,11.9334993 L31.7509574,11.2611895 Z M29.8065957,8.33033887 C29.7648936,8.32508645 29.6345745,8.30932918 29.6554255,8.2357953 C29.6814894,8.22003804 29.712766,8.2095332 29.7440426,8.21478562 L32.7570213,8.70851314 L32.897766,8.77679461 C32.897766,8.77679461 30.8126596,8.47740664 29.8065957,8.33033887 Z M33.2730851,7.79459198 C32.741383,7.68954357 32.1940426,7.56348548 31.672766,7.4164177 C31.6310638,7.40591286 31.5424468,7.39540802 31.5528723,7.3376314 C31.7457447,7.30086445 32.6214894,7.53197095 32.8404255,7.61075726 C32.9394681,7.64227178 32.9968085,7.6212621 33.0958511,7.61075726 C33.1688298,7.65802905 33.2470213,7.70530083 33.2991489,7.7735823 L33.2730851,7.79459198 Z M15.3620213,12.2591494 C15.4558511,12.2696542 15.4662766,12.154101 15.5496809,12.1330913 C15.7060638,12.2486445 15.6956383,12.4534889 15.857234,12.5637898 C15.9406383,12.579547 16.0553191,12.5270228 16.1543617,12.5060131 C16.2169149,12.4744986 16.2794681,12.4114696 16.2794681,12.3431881 C16.2481915,12.21713 16.1752128,12.1015768 16.1491489,11.9702663 C16.081383,11.7654219 15.8311702,11.9019848 15.68,11.9019848 C15.5131915,11.9440041 15.3620213,11.8757227 15.2160638,11.8442082 C15.1743617,11.8494606 15.1482979,11.8809751 15.122234,11.9072372 C15.0909574,11.9702663 15.101383,12.0438001 15.1274468,12.1015768 C15.1743617,12.1908679 15.2681915,12.2486445 15.3620213,12.2591494 Z M22.0812766,11.5815871 C21.8414894,11.4135097 21.7059574,11.1561411 21.5130851,10.9407918 C21.4453191,10.8620055 21.3462766,10.8042289 21.2785106,10.730695 C21.2368085,10.6834232 20.9657447,10.1004046 20.9188298,9.99535615 L20.8614894,9.96384163 C20.3714894,9.99010373 19.8762766,9.99535615 19.3862766,10.0111134 C19.1725532,10.0163658 18.8962766,10.0583852 18.687766,10.0321231 C18.6564894,10.0268707 18.6512766,10.0006086 18.6564894,9.97434647 C19.1204255,9.81677386 19.9701064,10.06889 20.2932979,9.63293914 C20.335,9.57516252 20.3297872,9.47536653 20.4079787,9.45435685 C20.491383,9.49637621 20.58,9.53839557 20.6790426,9.51213347 L20.7207447,9.45435685 C20.647766,9.14446404 20.5695745,8.81881397 20.3662766,8.56669779 C20.0482979,8.16226141 19.2820213,7.31662172 18.8441489,7.09602006 C18.6460638,6.99622407 18.4062766,6.64956432 18.3280851,6.77036999 C18.3332979,6.81238935 18.307234,6.84915629 18.2811702,6.88067082 C18.0882979,6.91743776 18.0935106,6.55502075 17.8380851,6.39744813 C17.5774468,6.23987552 17.238617,6.15583679 16.9414894,6.22411826 C16.5765957,6.30290456 16.1960638,6.50249654 15.8676596,6.670574 C15.1378723,7.04349585 14.4028723,7.4164177 13.6730851,7.78408714 C13.3238298,7.95741701 12.9797872,8.15175657 12.6201064,8.30407676 C12.5367021,8.34084371 12.4168085,8.35134855 12.3751064,8.45114454 C12.3229787,8.58245505 12.4376596,8.77679461 12.5419149,8.85032849 C12.7660638,9.00264869 13.1153191,8.81356155 13.3342553,8.72952282 L13.3707447,8.7505325 C13.2091489,8.9553769 13.0319149,8.9553769 12.8025532,9.00790111 C12.6201064,9.04466805 12.4376596,9.14446404 12.2604255,9.19698824 C12.0154255,9.26526971 11.7704255,9.34405602 11.5306383,9.42284232 C11.426383,9.45435685 11.2595745,9.48061895 11.2856383,9.63293914 C11.2491489,9.71697787 11.1605319,9.70647303 11.0875532,9.71697787 C10.29,9.86404564 9.48723404,10.06889 8.69489362,10.2369675 C8.19968085,10.3420159 7.70446809,10.4628216 7.21446809,10.5941321 C5.57765957,11.0248306 3.9356383,11.4345194 2.31446809,11.9387517 C2.15808511,11.9860235 1.31361702,12.2381397 1.2406383,12.3064212 C1.34489362,12.3274308 3.89914894,11.6288589 4.27968085,11.5343154 C6.66712766,10.9512967 9.08585106,10.5153458 11.4993617,10.0951521 C13.7929787,9.69596819 16.1126596,9.38607538 18.4219149,9.08668741 C18.8232979,9.03416321 19.2298936,8.97638658 19.6312766,8.93961964 C19.8919149,8.91335754 19.933617,9.00264869 20.1108511,9.17597856 C20.1108511,9.29153181 19.6312766,9.26001729 19.5270213,9.27052213 C19.511383,9.25476487 19.511383,9.23375519 19.5218085,9.21799793 C19.6,9.17597856 19.6781915,9.14446404 19.7303191,9.07618257 L19.7042553,9.01840595 C18.865,9.09193983 18.0205319,9.24951245 17.1864894,9.37557054 C15.9093617,9.57516252 14.632234,9.76424965 13.3603191,9.99535615 C12.5054255,10.1476763 11.6661702,10.368278 10.8112766,10.531103 L10.8112766,10.56787 C12.3490426,10.405045 13.8711702,10.0321231 15.4037234,9.81152144 L15.4089362,9.8535408 C15.0388298,9.96909405 14.6530851,10.0268707 14.277766,10.1214142 C12.5419149,10.5363555 10.7852128,10.8882676 9.0493617,11.3032089 C9.35691489,11.2611895 9.66446809,11.2191701 9.97202128,11.1824032 C10.0867021,11.2559371 9.94074468,11.3819952 10.0032979,11.5290629 C10.1075532,11.7811791 10.3108511,11.5448202 10.3317021,11.6708783 C10.3421277,11.7234025 10.2743617,11.8862275 10.222234,11.9124896 C9.5237234,11.9965284 8.8356383,12.1961203 8.13712766,12.2854115 L8.12670213,12.3431881 L8.56457447,12.3536929 L8.61148936,12.3904599 C8.61148936,12.5007607 8.45510638,12.4639938 8.38734043,12.4744986 C8.14234043,12.5217704 7.89734043,12.579547 7.64712766,12.6268188 C7.09978723,12.7318672 7.17797872,13.1520609 6.79223404,13.2466044 C6.75053191,13.2571093 6.72446809,13.2833714 6.69840426,13.3096335 C6.68797872,13.4619537 6.90170213,13.2360996 6.96425532,13.3831674 C6.92255319,13.54074 6.83393617,13.6878077 6.90170213,13.8558852 C6.92255319,13.9136618 6.96425532,13.9819433 7.02680851,13.9977006 C7.35521277,14.0922441 7.48553191,13.4987206 7.68882979,13.3831674 C7.8556383,13.2886238 8.06414894,13.4987206 8.27787234,13.3779149 C8.40297872,13.3096335 8.52808511,13.241352 8.64797872,13.1678181 C8.77829787,13.0890318 8.94510638,12.7843914 9.13276596,12.8211584 C9.2787234,12.8526729 9.33085106,13.078527 9.57585106,13.0995367 C9.96680851,13.1310512 10.378617,13.1468084 10.7695745,13.0890318 C11.4055319,12.9997407 12.4793617,12.6845954 12.9537234,12.2381397 C12.8911702,12.0595574 12.3542553,12.21713 12.2239362,12.2381397 C12.3438298,11.9807711 12.182234,11.8652178 12.3125532,11.8021888 L12.8598936,11.7496646 C13.0214894,11.7339073 13.1882979,11.6866355 13.3498936,11.6708783 C13.5167021,11.655121 13.6939362,11.6603734 13.8555319,11.6393638 C13.9545745,11.6236065 14.121383,11.592092 14.1735106,11.4975484 C14.1578723,11.4187621 14.1005319,11.3137137 14.1578723,11.2349274 C14.2256383,11.1403838 14.4132979,11.1193741 14.522766,11.0826072 C14.6635106,11.030083 14.7834043,10.9250346 14.9293617,10.8830152 C15.0961702,10.9355394 14.9502128,11.192908 15.1430851,11.2506846 C15.3255319,11.3032089 15.7634043,11.0668499 15.8832979,11.2139177 C15.8832979,11.292704 15.8311702,11.4135097 15.9041489,11.4765387 C16.0240426,11.5710823 16.17,11.592092 16.2898936,11.7181501 C16.4410638,11.8757227 16.6547872,12.1751107 16.592234,12.416722 C16.5244681,12.6635858 15.9510638,12.9367116 15.7373404,12.8001487 C15.5965957,12.7108575 15.6070213,12.5060131 15.4089362,12.5690422 C15.1743617,12.6425761 14.9345745,12.6583333 14.7,12.7213624 C14.5071277,12.7738866 14.2360638,12.8159059 14.0640426,12.8999447 C14.0379787,12.9157019 13.9910638,12.9577213 14.0223404,12.9892358 C14.1109574,13.0890318 14.9814894,12.9839834 15.1482979,12.9629737 C15.2264894,12.9524689 15.2994681,12.9524689 15.3515957,13.0154979 C15.4558511,13.141556 15.2160638,13.1730705 15.2890426,13.2886238 C15.3880851,13.440944 15.6435106,13.4987206 15.8051064,13.4567012 C16.1074468,13.3831674 16.4254255,13.2518568 16.7069149,13.1310512 C16.7955319,13.0890318 16.8945745,13.0260028 16.9884043,12.9944882 C17.2125532,12.9209544 17.4575532,13.04176 17.6087234,12.7896438 C17.7494681,12.5585373 17.9319149,12.3011687 17.9371277,12.0227905 C17.9371277,11.7969364 17.796383,11.655121 17.7181915,11.4607815 C17.6869149,11.3925 17.5461702,11.030083 17.551383,10.9775588 C17.551383,10.9407918 17.7025532,10.5941321 17.7338298,10.5888797 L18.708617,10.468074 C18.7294681,10.468074 18.7815957,10.5100934 18.7868085,10.5258506 C18.8285106,10.7254426 18.531383,10.9565491 18.4219149,11.093112 C18.3802128,11.1456362 18.3020213,11.2821992 18.3228723,11.3504806 C18.3593617,11.4607815 18.5157447,11.292704 18.5365957,11.4187621 C18.552234,11.5080533 18.3489362,11.6498686 18.3697872,11.8179461 C18.3854255,11.954509 18.3958511,12.1593534 18.5365957,12.2276349 C18.7711702,12.3379357 18.7920213,12.1488485 18.9014894,12.1435961 C18.9431915,12.1435961 19.0109574,12.1698582 19.0578723,12.1698582 C19.2038298,12.1698582 19.3393617,12.1225864 19.4801064,12.0858195 C19.756383,12.0070332 20.5956383,11.6131017 20.8197872,11.6446162 C21.0804255,11.6813831 21.226383,12.1383437 22.0343617,12.1593534 L22.0760638,12.0963243 C21.805,11.8284509 21.6017021,12.0070332 21.315,11.4292669 C21.2368085,11.2769467 21.1064894,11.0983645 20.9865957,10.9775588 C20.981383,10.9512967 20.9918085,10.9250346 21.0178723,10.9197822 C21.5026596,11.093112 21.5756383,11.8599654 22.3054255,11.8021888 L22.3419149,11.7601694 C22.295,11.655121 22.1542553,11.6288589 22.0812766,11.5815871 Z M15.6956383,7.7735823 C15.7529787,7.70530083 15.8259574,7.65802905 15.8989362,7.61075726 C15.9979787,7.6212621 16.0553191,7.64227178 16.1543617,7.61075726 C16.3732979,7.53722337 17.2490426,7.30086445 17.4419149,7.3376314 C17.4523404,7.40066044 17.3585106,7.40591286 17.3220213,7.4164177 C16.8007447,7.56348548 16.2534043,7.68954357 15.7217021,7.79459198 L15.6956383,7.7735823 Z M19.1881915,8.33033887 C18.1821277,8.47740664 16.0918085,8.77679461 16.0918085,8.77679461 L16.2325532,8.70851314 L19.2455319,8.21478562 C19.2768085,8.2095332 19.3080851,8.22003804 19.3341489,8.2357953 C19.3602128,8.30932918 19.2298936,8.32508645 19.1881915,8.33033887 Z M11.7391489,12.4377317 L10.712234,12.7003527 C10.691383,12.7003527 10.6548936,12.6951003 10.6392553,12.6688382 C10.6444681,12.6268188 10.691383,12.5637898 10.7330851,12.5480325 C10.9989362,12.4744986 11.2543617,12.4534889 11.515,12.4009647 C11.671383,12.3694502 11.7391489,12.3694502 11.8590426,12.3589454 L11.7391489,12.4377317 Z M17.2698936,12.6110615 C17.2438298,12.6058091 17.2125532,12.5900519 17.2073404,12.5585373 C17.2646809,12.3379357 17.3845745,12.0280429 17.217766,11.8021888 L16.972766,11.2769467 C16.993617,11.2034129 17.0718085,11.192908 17.1343617,11.1718983 C17.1812766,11.1666459 17.2281915,11.2139177 17.238617,11.2611895 L17.5253191,11.9334993 C17.5878723,12.2013728 17.4367021,12.4429841 17.2698936,12.6110615 Z M19.9544681,11.4765387 C19.8710638,11.4870436 19.7615957,11.5133057 19.6938298,11.4660339 C19.6573404,11.3872476 19.7146809,11.3137137 19.7459574,11.2401798 C19.8241489,11.1456362 19.933617,11.1193741 20.0482979,11.1193741 C20.0743617,11.1403838 20.0795745,11.1666459 20.0795745,11.1981604 C20.0743617,11.3032089 20.0482979,11.4187621 19.9544681,11.4765387 Z" id="Shape" fill="#DD0741"></path>
                <path d="M19.2507447,15.389592 L18.7815957,14.7172822 L15.6018085,16.9600657 L15.857234,17.3277351 L17.2646809,16.3350277 L17.462766,16.6239108 L16.3107447,17.438036 C16.2221277,17.501065 16.1595745,17.6061134 16.1178723,17.6796473 L16.1126596,17.6901521 L16.3785106,18.0735788 L16.3941489,18.0368119 C16.4358511,17.9475207 16.4775532,17.863482 16.5661702,17.800453 L17.6139362,17.0598617 C17.7651064,16.9548133 17.8328723,16.8497649 17.8224468,16.7289592 C17.8589362,16.7447165 17.9006383,16.7552213 17.9475532,16.7552213 C18.0153191,16.7552213 18.0830851,16.7289592 18.1612766,16.676435 L19.1569149,15.9778631 C19.2507447,15.914834 19.3132979,15.815038 19.3289362,15.7047372 C19.3393617,15.5944364 19.3132979,15.4841355 19.2507447,15.389592 Z M18.8806383,15.6417082 L17.8276596,16.3875519 L17.6087234,16.0724066 L17.6243617,16.0619018 L18.6773404,15.3160581 L18.8962766,15.6312033 L18.8806383,15.6417082 Z" id="Shape" fill="#001F47" fill-rule="nonzero"></path>
                <path d="M20.4653191,16.7972407 C20.4548936,16.6869398 20.4079787,16.5818914 20.3193617,16.5083575 L19.6990426,15.9673582 L17.1656383,18.9297234 L17.7859574,19.4654703 C17.8641489,19.5337517 17.9579787,19.5705187 18.062234,19.5705187 C18.1873404,19.5705187 18.3020213,19.5179945 18.3802128,19.4234509 L19.1412766,18.5357918 C19.2611702,18.3939765 19.2976596,18.2784232 19.2611702,18.16287 C19.2820213,18.16287 19.2976596,18.1681224 19.3132979,18.1681224 C19.4123404,18.1681224 19.4905319,18.126103 19.5739362,18.0315595 L20.3662766,17.1071335 C20.4392553,17.0178423 20.4757447,16.9075415 20.4653191,16.7972407 Z M18.9014894,18.1523651 L18.062234,19.1345678 L17.7755319,18.8824516 L18.6252128,17.8844917 L18.9119149,18.1366079 L18.9014894,18.1523651 Z M19.1829787,17.800453 L18.9171277,17.5693465 L19.7459574,16.5976487 L20.0118085,16.8287552 L19.1829787,17.800453 Z" id="Shape" fill="#001F47" fill-rule="nonzero"></path>
            </g>
        </g>
    </g>
</svg>